#!OML:ASF H:\charlestonDancing\Project 1\Capture day 1\Session 1\femaleDancer.ASF
:FULLY-SPECIFIED
:DEGREES
427
root -2.72221 17.893 6.07081 879.55 -70.9117 -864.917
lowerback 13.7835 -3.32701 2.9456
upperback 1.91794 -4.00865 0.869115
thorax -5.82446 -2.05941 0.00793618
lowerneck 5.62371 -14.3932 -9.56859
upperneck -8.40385 -19.3988 11.2684
head -1.35233 -9.94009 5.04234
rclavicle 5.48646e-014 -1.74931e-014
rhumerus -37.2291 -10.4287 -49.7104
rradius 66.923
rwrist -54.5656
rhand 13.6731 -19.5573
rfingers 7.12502
rthumb 38.6013 -45.1903
lclavicle 5.48646e-014 -1.74931e-014
lhumerus -77.8585 15.6202 50.5627
lradius 21.5857
lwrist -12.5674
lhand 15.9936 11.7803
lfingers 7.12502
lthumb 40.7861 36.7643
rfemur 0.595235 22.6979 17.9911
rtibia 32.4712
rfoot -16.3615 5.72648
rtoes -22.2003
lfemur -30.5765 1.22427 -15.2789
ltibia 37.5162
lfoot -18.0171 -5.63483
ltoes -8.37562
428
root -2.68127 17.8917 6.01777 881.154 -70.3685 -866.679
lowerback 13.9658 -3.1054 2.33423
upperback 1.88642 -3.81642 0.553494
thorax -5.93582 -1.95411 -0.00727279
lowerneck 6.35154 -13.9928 -10.5376
upperneck -9.03106 -18.8777 13.2568
head -1.40421 -9.7668 5.82667
rclavicle 8.18993e-014 6.36111e-015
rhumerus -38.2901 -9.65562 -50.2741
rradius 68.3356
rwrist -55.1724
rhand 12.8179 -19.8404
rfingers 7.12502
rthumb 37.7938 -45.6955
lclavicle 8.18993e-014 6.36111e-015
lhumerus -76.0902 13.9669 51.2368
lradius 24.1425
lwrist -9.158
lhand 14.3692 12.2365
lfingers 7.12502
lthumb 39.2576 37.6822
rfemur -0.844298 22.1206 18.042
rtibia 34.0907
rfoot -16.9339 5.24355
rtoes -22.1094
lfemur -30.4479 1.3694 -15.2911
ltibia 37.5155
lfoot -17.8579 -5.55809
ltoes -6.58057
429
root -2.63538 17.8917 5.96118 882.944 -69.9074 -868.792
lowerback 14.3524 -2.93615 1.50581
upperback 1.82268 -3.73084 0.17915
thorax -6.18802 -1.89609 0.0696041
lowerneck 6.25114 -13.5879 -10.4553
upperneck -8.86516 -18.3091 13.6994
head -1.36621 -9.50358 5.94725
rclavicle -7.15625e-015 2.22639e-014
rhumerus -38.4478 -9.35959 -51.2413
rradius 68.7731
rwrist -55.2119
rhand 11.9744 -19.9814
rfingers 7.12502
rthumb 36.9965 -46.0468
lclavicle -7.15625e-015 2.22639e-014
lhumerus -74.3546 12.1671 51.5182
lradius 26.9352
lwrist -6.9755
lhand 6.9251 11.3529
lfingers 7.12502
lthumb 32.2044 38.5176
rfemur -2.43518 21.45 18.0151
rtibia 36.1616
rfoot -17.3792 4.93007
rtoes -21.6291
lfemur -30.1029 1.81122 -15.5536
ltibia 37.3322
lfoot -17.5778 -5.61201
ltoes -5.3228
430
root -2.5929 17.8929 5.90001 884.875 -69.5864 -871.214
lowerback 14.6803 -2.79921 0.498921
upperback 1.83581 -3.73342 -0.217312
thorax -6.31825 -1.87781 0.234006
lowerneck 5.64969 -13.0816 -10.5847
upperneck -8.04641 -17.6247 13.9789
head -1.07007 -9.14613 5.98044
rclavicle -5.00937e-014 0
rhumerus -38.4564 -9.10895 -52.2269
rradius 69.137
rwrist -55.1136
rhand 11.2474 -20.1942
rfingers 7.12502
rthumb 36.3085 -46.4343
lclavicle -5.00937e-014 0
lhumerus -72.4114 10.4229 51.3224
lradius 29.8369
lwrist -6.17313
lhand 0.859387 11.7549
lfingers 7.12502
lthumb 26.4133 39.9348
rfemur -3.94797 20.7327 17.9662
rtibia 38.423
rfoot -17.8689 4.36837
rtoes -21.5261
lfemur -29.5339 2.44092 -16.0595
ltibia 37.0154
lfoot -17.2148 -5.78689
ltoes -4.98174
431
root -2.54957 17.8985 5.83947 886.542 -69.4641 -873.42
lowerback 14.978 -2.75088 -0.437432
upperback 1.87752 -3.8525 -0.602109
thorax -6.40465 -1.91879 0.391857
lowerneck 5.10108 -12.5641 -10.6676
upperneck -7.21332 -16.9363 14.0831
head -0.803286 -8.77789 5.96876
rclavicle -5.24792e-014 3.18055e-014
rhumerus -38.503 -8.67268 -53.1943
rradius 69.6644
rwrist -55.0154
rhand 10.5541 -20.4442
rfingers 7.12502
rthumb 35.6517 -46.8455
lclavicle -5.24792e-014 3.18055e-014
lhumerus -70.1314 8.76934 50.6934
lradius 32.7836
lwrist -6.14361
lhand -4.36529 12.8439
lfingers 7.12502
lthumb 21.4031 41.6817
rfemur -5.45692 19.8902 18.0169
rtibia 40.6524
rfoot -18.5105 3.62267
rtoes -22.0561
lfemur -28.9123 2.93369 -16.5899
ltibia 36.6082
lfoot -16.8843 -5.84583
ltoes -5.49784
432
root -2.49887 17.9088 5.78039 887.922 -69.5492 -875.244
lowerback 15.3724 -2.75978 -1.23158
upperback 1.8293 -4.02891 -0.933801
thorax -6.64318 -1.98686 0.545875
lowerneck 3.54855 -11.9793 -7.9149
upperneck -5.68707 -16.0707 10.2531
head -0.862627 -8.20301 4.84712
rclavicle -1.19271e-014 -4.77083e-014
rhumerus -35.7755 -9.60648 -54.8615
rradius 67.2078
rwrist -53.2524
rhand 10.1245 -20.5159
rfingers 7.12502
rthumb 35.2444 -47.0145
lclavicle -1.19271e-014 -4.77083e-014
lhumerus -67.4183 7.12478 49.7957
lradius 35.6041
lwrist -5.95583
lhand -9.15613 13.6917
lfingers 7.12502
lthumb 16.7961 42.9853
rfemur -7.1327 18.9335 18.1961
rtibia 42.6434
rfoot -19.1187 2.78164
rtoes -22.8297
lfemur -28.4269 3.2095 -17.0526
ltibia 36.1595
lfoot -16.4741 -5.82441
ltoes -5.74775
433
root -2.44726 17.9193 5.71805 888.869 -69.8083 -876.48
lowerback 15.6303 -2.78464 -1.81255
upperback 1.79978 -4.18854 -1.1807
thorax -6.79299 -2.05116 0.658798
lowerneck 3.91633 -11.8474 -10.4218
upperneck -5.5869 -15.9731 13.7366
head -0.304737 -8.231 5.72036
rclavicle -1.19271e-014 -4.77083e-014
rhumerus -35.7755 -9.60648 -54.8615
rradius 67.2078
rwrist -53.2524
rhand 10.1245 -20.5159
rfingers 7.12502
rthumb 35.2444 -47.0145
lclavicle -4.85035e-014 1.43125e-014
lhumerus -64.0865 5.73727 48.5868
lradius 38.3255
lwrist -5.29487
lhand -12.9004 14.4307
lfingers 7.12502
lthumb 13.1892 43.9935
rfemur -8.95544 17.8302 18.6113
rtibia 44.2242
rfoot -19.633 1.90478
rtoes -22.2795
lfemur -28.1119 3.35008 -17.3507
ltibia 35.7259
lfoot -15.9504 -5.88921
ltoes -5.52093
